<svg id="Capa_1" enable-background="new 0 0 511.997 511.997" height="512" viewBox="0 0 511.997 511.997" width="512" xmlns="http://www.w3.org/2000/svg"><g><g><path d="m342.714 511.997h-241.74l5.897-28.721c4.85-23.649 23.276-41.622 46.14-46.462 4.015-.855 8.171-1.298 12.418-1.298h112.829c4.237 0 8.393.443 12.408 1.298 22.864 4.84 41.3 22.813 46.15 46.462z" fill="#e7ecf1"/><path d="m189.713 435.51c-2.418 0-4.786.444-7.075 1.303-13.016 4.845-23.506 22.815-26.269 46.459l-3.355 28.726h-52.044l5.891-28.726c4.855-23.644 23.279-41.613 46.143-46.459 4.016-.859 8.171-1.303 12.414-1.303z" fill="#c6d0da"/><path d="m255.284 379.665v55.851c0 18.466-14.974 33.44-33.44 33.44-18.476 0-33.45-14.974-33.45-33.44v-55.851z" fill="#ffcbbe"/><path d="m232.765 467.133c-3.422 1.177-7.095 1.821-10.919 1.821-18.476 0-33.45-14.974-33.45-33.44v-55.851h21.837v55.851c0 14.652 9.42 27.1 22.532 31.619z" fill="#eaac9d"/><path d="m188.394 379.665h66.89v51.453h-66.89z" fill="#eaac9d"/><g><path d="m72.325 373.476c-23.639 4.76-46.66-10.545-51.419-34.183-.655-3.253-.93-6.495-.856-9.679.601-25.709 37.611-28.964 42.687-3.754l273.928-55.155c-5.076-25.21 30.31-36.532 40.814-13.059 1.301 2.907 2.302 6.003 2.957 9.256 4.76 23.639-10.545 46.66-34.183 51.419" fill="#eaac9d"/><path d="m65.939 349.49c-1.906 0-3.815-.701-5.307-2.112-.213-.196-8.374-7.606-14.472-3.589-3.564 2.347-8.356 1.358-10.702-2.206s-1.359-8.356 2.205-10.702c6.913-4.55 15.342-4.982 23.733-1.215 5.622 2.523 9.462 6.111 9.881 6.512 3.086 2.948 3.196 7.839.247 10.924-1.516 1.588-3.549 2.388-5.585 2.388z" fill="#df9380"/><path d="m339.858 294.31c-1.041 0-2.098-.212-3.11-.66-3.884-1.72-5.661-6.231-3.965-10.127.231-.532 2.384-5.325 6.592-9.828 6.279-6.719 14.211-9.584 22.353-8.064 4.194.784 6.96 4.82 6.175 9.015-.784 4.194-4.816 6.959-9.014 6.176-7.243-1.354-11.911 8.811-11.957 8.914-1.29 2.864-4.117 4.574-7.074 4.574z" fill="#df9380"/><path d="m262.268 417.098-74.275 14.955c-55.133 11.101-108.826-24.594-119.927-79.727l-28.348-140.791 273.928-55.155 28.348 140.791c11.101 55.133-24.593 108.826-79.726 119.927z" fill="#ffcbbe"/><path d="m253.567 418.849-65.574 13.203c-55.127 11.1-108.827-24.599-119.927-79.726l-28.349-140.797 65.574-13.203 28.349 140.797c11.1 55.127 64.79 90.828 119.927 79.726z" fill="#eaac9d"/><g fill="#454045"><path d="m141.549 269.848c-3.261-3.577-6.966-5.163-10.428-4.465-7.126 1.435-10.986 12.227-8.604 24.058 2.205 10.951 8.997 19.012 15.647 19.011.533 0 1.067-.052 1.597-.158 3.465-.698 6.266-3.593 7.887-8.152 1.614-4.537 1.867-10.185.715-15.905-1.15-5.72-3.57-10.83-6.814-14.389z"/><path d="m288.898 255.94c-2.381-11.829-10.114-20.289-17.242-18.853-7.127 1.435-10.987 12.227-8.604 24.058 2.205 10.951 8.996 19.012 15.646 19.011.533 0 1.067-.052 1.597-.158 3.465-.698 6.267-3.593 7.888-8.152 1.613-4.538 1.866-10.186.715-15.906z"/></g><g fill="#e490b7"><ellipse cx="287.138" cy="315.601" rx="22.87" ry="13.906" transform="matrix(.98 -.197 .197 .98 -56.647 62.887)"/><ellipse cx="125.78" cy="348.09" rx="22.87" ry="13.906" transform="matrix(.98 -.197 .197 .98 -66.234 31.676)"/></g><path d="m88.351 100.052-42.387 8.535c-26.334 5.302-43.384 30.949-38.082 57.283l13.002 64.573c2.644 13.129 15.43 21.629 28.559 18.986l29.8-6c39.253-7.904 64.667-46.132 56.764-85.385l-6.116-30.377c-3.847-19.097-22.444-31.46-41.54-27.615z" fill="#f4dd45"/><path d="m88.093 100.097c-26.33 5.302-43.38 30.949-38.077 57.289l17.788 88.343-18.362 3.697c-13.129 2.644-25.915-5.857-28.559-18.986l-13.001-64.57c-5.304-26.34 11.746-51.987 38.077-57.289z" fill="#eab14d"/><path d="m255.711 195.815-66.007 13.29c-35.737 7.196-70.542-15.942-77.737-51.679l-8.214-40.794c-7.196-35.737 15.942-70.542 51.679-77.737l193.166-38.895 8.668 43.052c14.141 70.228-31.327 138.622-101.555 152.763z" fill="#f4dd45"/><path d="m246.761 197.613-57.061 11.489c-35.742 7.197-70.538-15.936-77.735-51.678l-8.214-40.793c-7.197-35.742 15.936-70.538 51.678-77.735l57.061-11.489c-35.742 7.197-58.874 41.993-51.678 77.735l8.214 40.793c7.197 35.742 41.994 58.874 77.735 51.678z" fill="#eab14d"/><path d="m197.645 310.397c-3.604 0-6.828-2.534-7.566-6.203-.842-4.183 1.866-8.257 6.049-9.1l27.084-5.453c4.185-.842 8.258 1.867 9.1 6.049.842 4.183-1.866 8.257-6.049 9.1l-27.084 5.453c-.515.104-1.029.154-1.534.154z" fill="#eaac9d"/><path d="m108.633 274.667c-3.683 0-6.945-2.643-7.602-6.396-.735-4.203 2.075-8.207 6.279-8.943l39.377-6.891c4.21-.737 8.207 2.076 8.943 6.279.735 4.203-2.075 8.207-6.279 8.943l-39.377 6.891c-.451.079-.899.117-1.341.117z" fill="#df9380"/><path d="m252.826 250.16c-3.273 0-6.311-2.096-7.359-5.38-1.297-4.065.948-8.412 5.013-9.709l38.086-12.149c4.065-1.296 8.412.948 9.709 5.013s-.948 8.412-5.013 9.709l-38.086 12.149c-.781.249-1.572.367-2.35.367z" fill="#df9380"/><path d="m193.281 378.189h-22.314c-4.268 0-7.726-3.459-7.726-7.726s3.459-7.726 7.726-7.726h22.314c4.268 0 7.726 3.459 7.726 7.726s-3.459 7.726-7.726 7.726z" fill="#fff"/></g></g><circle cx="429.428" cy="165.075" fill="#d0e2e7" r="67.927"/><path d="m429.428 240.729c-41.715 0-75.654-33.938-75.654-75.654s33.939-75.654 75.654-75.654 75.654 33.938 75.654 75.654-33.939 75.654-75.654 75.654zm0-135.855c-33.195 0-60.201 27.006-60.201 60.201s27.006 60.201 60.201 60.201 60.201-27.006 60.201-60.201-27.006-60.201-60.201-60.201z" fill="#90dfc3"/><path d="m449.24 172.801h-19.812c-4.268 0-7.726-3.459-7.726-7.726v-40.398c0-4.267 3.459-7.726 7.726-7.726s7.726 3.459 7.726 7.726v32.672h12.086c4.268 0 7.726 3.459 7.726 7.726s-3.459 7.726-7.726 7.726z" fill="#544f57"/></g></svg>